<svg xmlns="http://www.w3.org/2000/svg" width="204" height="34" fill="none" viewBox="0 0 204 34">
  <g clip-path="url(#a)">
    <path fill="#E31E52" fill-rule="evenodd" d="m14.008 18.35-3.74-15.44A3.167 3.167 0 0 0 8.74.9 3.148 3.148 0 0 0 6.231.655L2.185 1.974a3.152 3.152 0 0 0-1.89 1.674 3.171 3.171 0 0 0-.063 2.528l6.031 14.697c.301.74.87 1.337 1.592 1.674a3.148 3.148 0 0 0 2.302.14l1.764-.575a3.154 3.154 0 0 0 1.78-1.47 3.17 3.17 0 0 0 .307-2.291Zm.562 14.94a4.31 4.31 0 0 1-4.62-1.312 4.342 4.342 0 0 1 1.173-6.596 4.314 4.314 0 0 1 4.787.37 4.336 4.336 0 0 1 1.641 3.744 4.344 4.344 0 0 1-1.504 2.966 4.32 4.32 0 0 1-1.477.828Zm8.982-3.965c5.549-1.808 10.028-8.224 7.8-15.103-2.23-6.875-9.613-9.43-15.162-7.622a2.592 2.592 0 0 0-1.464 1.208 2.604 2.604 0 0 0-.252 1.885l.56 2.312a2.611 2.611 0 0 0 1.258 1.652 2.592 2.592 0 0 0 2.063.202l.227-.073a4.348 4.348 0 0 1 4.757 1.257 4.378 4.378 0 0 1 .562 4.902 4.373 4.373 0 0 1-2.624 2.156l-.228.073a2.59 2.59 0 0 0-1.547 1.38 2.608 2.608 0 0 0-.046 2.076l.895 2.205a2.59 2.59 0 0 0 3.201 1.49Z" clip-rule="evenodd"/>
    <path fill="#303330" fill-rule="evenodd" d="M48.584 11.652c2.95-1.584 6.584-1.295 9.046 1.173 2.363 2.374 2.41 5.786 2.41 7.128 0 3.8-1.75 7.003-5.081 7.989-4.436 1.363-11.23.16-11.23.16a.617.617 0 0 1-.548-.614v-21a.5.5 0 0 1 .499-.5h4.16a.498.498 0 0 1 .498.5v5.022a.165.165 0 0 0 .164.164.163.163 0 0 0 .082-.022Zm-.043 12.035c1.279.36 3.832.498 5.293-1.025v.005c1.002-.977 2.174-4.136-.18-6.496-.992-1.018-2.617-1.568-4.874-.623a.778.778 0 0 0-.442.712v7.14a.293.293 0 0 0 .203.287Zm72.081-17.185v21.72a.337.337 0 0 0 .333.333h4.522a.336.336 0 0 0 .334-.332V6.503a.502.502 0 0 0-.498-.5h-4.196a.497.497 0 0 0-.495.5ZM80.218 24.714a1.52 1.52 0 0 1-.701-.29c-.228-.2-.348-.554-.373-1.13V11.278a.439.439 0 0 0-.435-.436h-4.265a.434.434 0 0 0-.434.436v11.148a.192.192 0 0 1 0 .05c-.41 1.452-2.108 1.89-3.44 1.664-1.89-.32-2.68-1.912-2.612-3.748 0-.063.025-8.493.03-9.114a.436.436 0 0 0-.435-.436h-4.256a.431.431 0 0 0-.432.432c0 1.826-.014 10.604-.014 10.604 0 1.37.428 5.807 4.875 6.62 2.091.38 4.579-.293 6.588-1.726a.17.17 0 0 1 .195-.007.17.17 0 0 1 .049.048 3.787 3.787 0 0 0 1.962 1.404c1.173.387 2.767.23 3.249.183h.012a.335.335 0 0 0 .296-.297l.407-3.004a.332.332 0 0 0-.266-.384Zm85.322-6.557c-.152-1.956-.756-3.997-1.994-5.478l-.033-.04-.032-.038c-.509-.616-1.871-2.261-6.065-2.248-1.719 0-3.439.116-5.151.28-.978.09-1.956.19-2.933.293-.632.066-.631.451-.628.969v20.827a.762.762 0 0 0 .157.57c.154.112.345.16.534.137h3.746a.55.55 0 0 0 .676-.374.554.554 0 0 0 .007-.283c.009-1.204.007-2.392.004-3.584a536.12 536.12 0 0 1-.004-1.798c0-.032.008-.064.026-.091a.158.158 0 0 1 .069-.063.164.164 0 0 1 .178.023c1.493 1.304 3.726 1.664 5.642 1.107 2.031-.584 3.714-2.145 4.682-4.033.967-1.887 1.28-4.058 1.119-6.176Zm-5.234 2.497c-.428 1.677-1.195 2.967-3.498 3.106-1.152.066-2.981-.586-2.981-1.661v-6.43c0-.247.027-.427.266-.534.494-.229 1.821-.413 2.838-.381 4.379.125 3.598 5.071 3.386 5.9h-.011Zm-66.69-1.58c-.365.518-.365.694-.024 1.178l6.037 7.786c.035.05.056.109.06.17a.323.323 0 0 1-.038.177.321.321 0 0 1-.296.18h-4.97a.331.331 0 0 1-.278-.15l-5.198-6.761a.256.256 0 0 0-.278-.086.253.253 0 0 0-.125.088.254.254 0 0 0-.052.144v6.432a.334.334 0 0 1-.334.333h-4.488a.335.335 0 0 1-.333-.333V6.502a.502.502 0 0 1 .308-.467.501.501 0 0 1 .193-.037h4.154a.498.498 0 0 1 .498.5V17.91a.228.228 0 0 0 .292.211.227.227 0 0 0 .113-.076 855.169 855.169 0 0 0 5.007-7.014.33.33 0 0 1 .273-.144h4.854a.316.316 0 0 1 .298.187.328.328 0 0 1-.034.352l-5.64 7.648Zm104.173 1.178c-.34-.484-.34-.66.024-1.178l5.649-7.648a.333.333 0 0 0 .034-.351.332.332 0 0 0-.298-.188h-4.863a.33.33 0 0 0-.273.144c-.554.792-4.006 5.644-5.007 7.014a.23.23 0 0 1-.251.077.227.227 0 0 1-.156-.212V6.498a.507.507 0 0 0-.499-.5h-4.162a.495.495 0 0 0-.461.308.502.502 0 0 0-.038.192v21.73a.337.337 0 0 0 .334.332h4.488a.335.335 0 0 0 .333-.333V21.8a.259.259 0 0 1 .329-.23.26.26 0 0 1 .126.084l5.198 6.76a.336.336 0 0 0 .277.15h4.973a.328.328 0 0 0 .296-.18.33.33 0 0 0 .038-.177.318.318 0 0 0-.063-.17l-6.028-7.785Zm-80.324 4.46.053.012a.34.34 0 0 1 .204.14c.048.07.067.156.053.24l-.412 3.005a.327.327 0 0 1-.291.294l-.079.008c-.576.061-2.356.25-3.635-.36a3.687 3.687 0 0 1-1.513-1.239.16.16 0 0 0-.169-.072.15.15 0 0 0-.058.026c-.652.47-3.49 2.301-6.692 1.708a5.422 5.422 0 0 1-2.535-1.171c-2.387-2.055-2.546-6.462-.203-8.658a7.026 7.026 0 0 1 1.969-1.164c3.029-1.317 7.148-1.12 7.148-1.12.046-.79-.1-1.8-2.061-1.977-1.578-.175-4.493.34-5.357.492l-.176.03a.495.495 0 0 1-.58-.413l-.943-2.81a.515.515 0 0 1 .086-.373.503.503 0 0 1 .324-.204c.897-.141 3.398-.5 4.481-.616 5.543-.66 7.24 1.172 7.862 1.843h.001c.037.042.072.079.102.11 1.35 1.516 1.441 3.653 1.428 5.577l-.037 5.021c0 1.435.489 1.546 1.03 1.67Zm-6.442-1.242a.95.95 0 0 0 .269-.657v-2.917c0-.306-.826-.216-1.03-.194l-.044.005c-1.393.189-2.381.45-3.011.778-.801.424-1.204 1.066-1.204 1.917a1.873 1.873 0 0 0 .682 1.525c1.684 1.205 3.792.125 4.338-.457Zm34.585 1.254-.053-.013c-.539-.124-1.028-.236-1.028-1.67l.037-5.021c.014-1.924-.079-4.06-1.427-5.576a7.802 7.802 0 0 1-.105-.112c-.625-.673-2.325-2.502-7.86-1.842-1.083.116-3.585.475-4.481.616a.499.499 0 0 0-.407.578l.941 2.81a.495.495 0 0 0 .204.329.492.492 0 0 0 .377.083l.038-.007c.619-.113 3.814-.698 5.487-.52 1.962.178 2.108 1.187 2.064 1.977 0 0-4.121-.196-7.15 1.12a6.998 6.998 0 0 0-1.959 1.165c-2.342 2.195-2.186 6.603.202 8.657a5.422 5.422 0 0 0 2.536 1.171c3.204.594 6.04-1.237 6.691-1.707a.155.155 0 0 1 .182-.001.166.166 0 0 1 .045.046c.384.543.907.971 1.513 1.24 1.279.61 3.058.42 3.635.36l.08-.009a.328.328 0 0 0 .291-.294l.423-3a.338.338 0 0 0-.276-.38Zm-6.214-1.911a.954.954 0 0 1-.269.657c-.549.582-2.656 1.662-4.338.457a1.878 1.878 0 0 1-.682-1.525c0-.851.403-1.493 1.205-1.917.631-.329 1.617-.589 3.009-.778l.044-.005c.205-.022 1.032-.112 1.032.194l-.001 2.917Zm44.914 1.898.053.013a.342.342 0 0 1 .264.376l-.412 3.004a.332.332 0 0 1-.093.2.333.333 0 0 1-.198.094l-.081.009c-.58.061-2.357.25-3.633-.36a3.675 3.675 0 0 1-1.514-1.24.16.16 0 0 0-.168-.07.156.156 0 0 0-.059.025c-.651.47-3.489 2.3-6.691 1.707a5.404 5.404 0 0 1-2.535-1.17c-2.388-2.055-2.547-6.463-.203-8.658a7.026 7.026 0 0 1 1.959-1.164c3.03-1.317 7.149-1.121 7.149-1.121.043-.79-.1-1.799-2.062-1.977-1.683-.18-4.898.412-5.496.522l-.03.005a.495.495 0 0 1-.582-.413l-.942-2.81a.505.505 0 0 1 .409-.577c.895-.141 3.398-.5 4.479-.616 5.543-.66 7.24 1.172 7.862 1.843.038.042.072.079.103.11 1.348 1.516 1.441 3.653 1.428 5.577l-.037 5.021c0 1.435.489 1.546 1.03 1.67Zm-6.433-1.24a.954.954 0 0 0 .269-.658v-2.917c0-.306-.826-.216-1.031-.194l-.043.005c-1.396.189-2.381.45-3.011.778-.804.424-1.204 1.066-1.204 1.917a1.873 1.873 0 0 0 .682 1.525c1.684 1.205 3.79.125 4.338-.457Z" clip-rule="evenodd"/>
  </g>
  <defs>
    <clipPath id="a">
      <path fill="#fff" d="M0 0h204v33H0z" transform="translate(0 .5)"/>
    </clipPath>
  </defs>
</svg>
