<svg xmlns="http://www.w3.org/2000/svg" width="208" height="26" fill="none" viewBox="0 0 208 26">
  <g clip-path="url(#a)">
    <path fill="#101913" d="M196.916 4.482h.141c.323 1.644.464 2.392.792 3.585l1.909 8.07h-5.588l1.908-8.07c.28-1.193.466-1.941.837-3.585m5.073 21.17h5.262L200.642.494h-7.17l-6.657 25.16h4.981l1.488-5.63h7.216l1.488 5.628Zm-26.579.346c2.887 0 5.68-.745 7.497-1.542v-12.6h-8.102v4.034h3.308v5.626c-.607.399-1.634.65-2.746.65-3.445 0-4.517-1.843-4.517-7.17v-3.244c0-5.278 1.022-7.87 4.188-7.87 2.188 0 2.937 1.595 2.986 3.29h4.981C182.949 2.74 179.973 0 175.036 0c-6.893 0-9.403 4.281-9.403 11.21v3.686c-.048 7.52 2.329 11.104 9.775 11.104M152.091 4.482h.142c.324 1.644.466 2.392.789 3.585l1.912 8.07h-5.587l1.908-8.07c.278-1.193.464-1.941.836-3.585Zm5.075 21.171h5.256L155.817.494h-7.174l-6.65 25.16h4.981l1.488-5.63h7.213l1.491 5.628v.001Zm-25.139 0h4.98V.494h-4.98v25.16ZM118.342 26c5.537 0 8.238-2.742 8.377-7.866h-5.025c-.093 2.49-.841 4.032-3.211 4.032-2.698 0-3.72-2.04-3.72-7.27V11.21c0-5.281 1.022-7.27 3.72-7.27 2.516 0 2.933 1.793 3.024 3.686h5.026c-.049-4.384-2.374-7.521-8.189-7.521-6.472 0-8.843 4.333-8.843 11.105v3.687c0 6.823 2.369 11.104 8.841 11.104Zm-33.702-.347h4.424V11.06c0-2.042-.097-4.533-.19-6.577h.145c.695 2.59 1.067 3.935 1.72 5.876l5.168 15.295h7.261V.494h-4.423v14.002c0 1.837.048 4.281.094 6.621h-.14c-.371-1.745-.701-3.489-1.678-6.327L92.18.496h-7.585v25.157h.044Zm-20.296 0H77.89v-4.038h-8.565v-6.973h7.77v-4.08h-7.772v-6.08h8.24V.447H64.339V25.65l.005.003Zm-18.198 0H59.18v-4.038h-8.053V.495h-4.981v25.158ZM30.692 4.481h.14c.324 1.643.47 2.392.793 3.584l1.908 8.07H27.95l1.909-8.07c.278-1.192.465-1.941.836-3.584m5.073 21.172h5.26L34.417.494h-7.168l-6.658 25.16h4.98l1.489-5.63h7.217l1.491 5.628-.001.001Zm-30.49-3.837v-7.318h3.027c2.56 0 3.768 1.244 3.768 3.681 0 2.687-1.582 3.689-3.862 3.689H5.276v-.052Zm0-11.158V4.333h3.12c2.277 0 3.256 1.092 3.256 3.138 0 2.045-1.111 3.189-3.209 3.189H5.276v-.002ZM.294 25.653h8.798c4.932 0 7.956-1.898 7.956-7.124 0-3.338-1.81-5.626-5.165-5.98v-.145c2.976-.548 4.748-2.292 4.748-5.628 0-4.337-2.329-6.279-7.306-6.279H.25v25.156h.045Z"/>
  </g>
  <defs>
    <clipPath id="a">
      <path fill="#fff" d="M0 0h207v26H0z" transform="translate(.25)"/>
    </clipPath>
  </defs>
</svg>
