<svg xmlns="http://www.w3.org/2000/svg" width="203" height="46" fill="none" viewBox="0 0 203 46">
  <g clip-path="url(#a)">
    <path fill="#101913" d="M101.034 28.52c0-5.316 4.349-9.609 9.733-9.609 5.383 0 9.732 4.293 9.732 9.609s-4.349 9.609-9.732 9.609c-5.384 0-9.733-4.191-9.733-9.609Zm39.758 0c0-5.316 4.349-9.609 9.733-9.609 5.383 0 9.732 4.293 9.732 9.609s-4.349 9.609-9.732 9.609c-5.384.102-9.733-4.191-9.733-9.609Zm-92.251 0c0-5.316 4.349-9.609 9.732-9.609 5.384 0 9.733 4.293 9.733 9.609s-4.349 9.609-9.733 9.609c-5.384.102-9.732-4.191-9.732-9.609Zm-39.758 0c0-5.316 4.349-9.609 9.732-9.609 5.384 0 9.733 4.293 9.733 9.609s-4.349 9.609-9.733 9.609c-5.383.102-9.732-4.191-9.732-9.609ZM89.23 11.449h-8.49v33.733h8.49V11.45ZM28.248 45.284h8.49V11.551h-8.49v2.76c-2.9-1.942-6.316-3.067-10.147-3.067C8.37 11.142.5 18.911.5 28.52.5 38.231 8.369 46 18.205 46c3.727 0 7.247-1.124 10.146-3.067v2.351h-.103Zm132.009 0h8.49V11.551h-8.49v2.76c-2.899-1.942-6.316-3.067-10.147-3.067-9.732 0-17.704 7.77-17.704 17.48 0 9.712 7.868 17.48 17.704 17.48 3.728 0 7.248-1.124 10.147-3.066v2.146Zm11.596-10.937C172.164 41.196 177.962 46 187.901 46c8.076 0 14.703-3.476 14.703-11.04 0-5.316-3.003-8.382-9.94-9.711l-5.384-1.022c-3.52-.614-5.901-1.33-5.901-3.374 0-2.249 2.381-3.27 5.28-3.27 4.245 0 6.005 2.146 6.109 4.6h8.593c-.518-6.645-5.798-11.04-14.495-11.04-8.904 0-14.185 4.804-14.185 11.141 0 7.667 6.316 8.894 11.7 9.916l4.452.818c3.21.613 4.659 1.533 4.659 3.373 0 1.636-1.656 3.271-5.384 3.271-5.591 0-7.351-2.862-7.454-5.315h-8.801ZM68.006 0v14.209c-2.9-1.942-6.316-3.067-10.147-3.067-9.732 0-17.705 7.77-17.705 17.48C40.258 38.232 48.127 46 57.963 46c3.727 0 7.247-1.124 10.146-3.067v2.351h8.49V0h-8.593Zm52.493 0v14.209c-2.899-1.942-6.316-3.067-10.147-3.067-9.732 0-17.704 7.77-17.704 17.48 0 9.711 7.868 17.48 17.704 17.48 3.728 0 7.248-1.124 10.147-3.066v2.35h8.49V0h-8.49ZM80.741 0v8.382h8.49V0"/>
  </g>
  <defs>
    <clipPath id="a">
      <path fill="#fff" d="M0 0h202v46H0z" transform="translate(.5)"/>
    </clipPath>
  </defs>
</svg>
