<svg xmlns="http://www.w3.org/2000/svg" width="203" height="32" fill="none" viewBox="0 0 203 32">
  <g clip-path="url(#a)">
    <path fill="#1B1B1B" d="M9.043 25.4c-1.618-2.533-2.63-6-2.63-9.333 0-3.267.877-6.4 2.428-9.067l.202-.333c1.55-3.067 4.99-5.134 8.36-5.134 2.226 0 4.518.667 6.338 1.6a18.35 18.35 0 0 1 7.417 8.667V6.333c0-1.2-1.888-2.6-1.888-2.6A19.653 19.653 0 0 0 17.74 0c-1.752 0-4.18.467-4.18.467-7.349 1.6-12.81 8-12.81 15.6C.75 24.2 6.953 30.933 14.976 31.8c0 0 1.618.267 2.765.2 4.652 0 8.967-1.6 12.338-4.333l.472-.467c.405-.533.674-1.2.674-1.867V20.8c0-1.333.674-2.533 1.686-3.267h-8.698c1.012.734 1.686 1.934 1.686 3.267l.067 4.267c0 .866-.337 1.6-.876 2.2-.674.8-3.371 2.133-3.371 2.133a9.45 9.45 0 0 1-4.383 1.067c-3.64-.134-6.742-2.134-8.293-5.067ZM96.558 16c0 7.6 5.462 13.867 12.676 15.4 0 0 2.427.467 4.18.467 4.315 0 8.226-1.334 11.462-3.667 0 0 1.955-1.2 1.955-2.4l.742-5.8c-2.225 5.467-6.001 7.533-8.158 8.733-1.821.934-4.18 1.6-6.338 1.6-3.371 0-6.81-1.866-8.36-4.933l-.203-.333A17.894 17.894 0 0 1 102.087 16c0-3.267.877-6.4 2.427-9.067l.203-.333c1.55-3.067 4.989-5.133 8.36-5.133 2.225 0 4.517.666 6.338 1.6 3.304 2 5.933 5.066 7.416 8.666V6.267c0-1.2-1.887-2.6-1.887-2.6C121.707 1.333 117.729 0 113.414 0c-1.753 0-4.18.467-4.18.467A15.805 15.805 0 0 0 96.558 16Zm49.961 0c0 7.6 5.461 13.867 12.676 15.4 0 0 2.427.467 4.18.467 4.315 0 8.225-1.334 11.462-3.667 0 0 1.955-1.2 1.955-2.467l.742-5.8c-2.225 5.467-6.001 7.534-8.158 8.734-1.821.933-4.181 1.6-6.338 1.6-3.371 0-6.81-1.934-8.361-4.934l-.202-.333c-1.551-2.667-2.427-5.733-2.427-9.067 0-3.266.876-6.4 2.427-9.066l.202-.334c1.551-3.066 4.99-5.133 8.361-5.133 2.225 0 4.517.667 6.338 1.6 3.303 2 5.933 5.067 7.416 8.667V6.333c0-1.2-1.888-2.6-1.888-2.6C171.735 1.4 167.757 0 163.442 0c-1.753 0-4.18.467-4.18.467C151.98 2 146.519 8.4 146.519 16ZM202.75 1.4h-8.36c1.011.733 1.685 1.867 1.685 3.2v24.067c0 1.266-.607 2.466-1.618 3.133h8.158c-.944-.733-1.618-1.867-1.618-3.133V4.6c.067-1.333.674-2.533 1.753-3.2Zm-144.42 0h-8.361a4.056 4.056 0 0 1 1.685 3.267v18c.27 3.266 2.36 6.066 5.26 7.4a17.96 17.96 0 0 0 7.82 1.8c2.832 0 5.597-.6 7.957-1.8h.067c2.9-1.334 4.99-4.134 5.259-7.4V4.533c0-1.333.674-2.466 1.686-3.133h-4.855c1.011.733 1.686 1.8 1.686 3.133v18.2c-.203 2-1.214 3.734-2.63 4.934l-.067.066c-1.618 1.267-4.518 2.2-7.282 2.2-1.686 0-3.304-.333-4.854-.933l-.135-.067c-2.697-.933-4.652-3.4-4.99-6.333V4.667c0-1.4.742-2.6 1.753-3.267Z"/>
  </g>
  <defs>
    <clipPath id="a">
      <path fill="#fff" d="M0 0h202v32H0z" transform="translate(.75)"/>
    </clipPath>
  </defs>
</svg>
