<svg xmlns="http://www.w3.org/2000/svg" width="204" height="46" fill="none" viewBox="0 0 204 46">
  <g clip-path="url(#a)">
    <path fill="#03AC0E" fill-rule="evenodd" d="M109.051 31.494c-2.217 2.258-4.867 3.394-7.942 3.394-2.485 0-4.597-.509-6.753-1.767v-5.18c1.734 1.18 3.912 2.305 6.061 2.305 4.483 0 7.152-3.098 7.152-7.49 0-4.397-2.761-7.587-7.246-7.587-2.002 0-3.626.722-4.895 2.172-1.359 1.571-2.062 3.817-2.062 6.784v20.457h-.338a4.486 4.486 0 0 1-4.472-4.493v-16.73c0-7.1 4.32-12.832 11.747-12.832 3.665 0 6.644 1.258 8.902 3.79 2.123 2.363 3.174 5.359 3.174 8.964 0 3.207-1.11 5.95-3.328 8.213Zm52.087-.175c-2.209 2.381-5.051 3.57-8.495 3.57-3.637 0-6.602-1.26-8.857-3.79-2.121-2.394-3.174-5.392-3.174-8.964 0-6.324 4.858-11.608 11.253-11.608 2.466 0 4.607.523 6.77 1.715v5.231c-1.734-1.18-3.912-2.306-6.061-2.306-4.483 0-7.153 3.1-7.153 7.494 0 4.334 2.825 7.587 7.246 7.587 2 0 3.649-.754 4.966-2.271 1.311-1.51 1.992-3.725 1.992-6.701V4.993a4.488 4.488 0 0 1 1.305-3.172A4.488 4.488 0 0 1 164.098.5h.337v21.54c0 3.792-1.091 6.897-3.297 9.28Zm13.583-23.092c-.505.568-1.228.83-2.11.83-1.652 0-2.834-1.223-2.834-2.87 0-1.685 1.16-2.822 2.832-2.822 1.611 0 2.834 1.2 2.834 2.822 0 .801-.234 1.49-.722 2.039v.001Zm24.444 13.049c0-1.905-.718-3.414-2.159-4.556-1.298-1.028-2.92-1.551-4.894-1.551-4.355 0-7.15 3.418-7.15 7.636 0 4.057 2.964 7.443 7.105 7.443 2.88 0 4.419-1.69 6.062-3.797v6.07c-.837.63-1.799 1.318-2.781 1.72-1.037.437-2.275.647-3.706.647-6.923 0-11.49-5.761-11.49-12.418 0-3.419 1.056-6.245 3.185-8.449 2.258-2.336 5.22-3.494 8.846-3.494 6.875 0 11.793 3.965 11.793 11.13v12.755h-.338a4.484 4.484 0 0 1-4.473-4.495v-8.641Zm-65.855-1.37c-.607-1.888-1.37-2.818-3.123-3.8-4.168-2.34-8.272-.348-10.18 3.782l13.303.018Zm-3.67 14.91c-3.073.657-6.088.151-9.03-1.5-2.87-1.61-4.79-4.003-5.754-7.167-1.947-6.399 2.042-13.529 8.458-15.254 3.18-.856 6.23-.468 9.127 1.157 4.812 2.703 6.565 6.883 6.259 12.268l-19.381-.04c.286 2.196 1.64 3.915 3.545 4.983 1.933 1.085 3.709 1.345 5.356.83 1.829-.576 3.315-2.077 4.522-3.473l3.949 2.89c-1.611 2.898-3.804 4.612-7.051 5.305v.002Zm40.565-23.811h4.81v23.407h-.338a4.49 4.49 0 0 1-3.167-1.321 4.472 4.472 0 0 1-1.305-3.173V11.002v.002ZM7.04 34.41C2.334 34.41 0 31.196 0 26.707V9.673a4.481 4.481 0 0 1 4.474-4.494h.338v5.826h8.127v4.64H4.812v11.6c0 1.97.875 2.525 2.751 2.525h5.375v4.64H7.04Zm27.938-2.957c-2.377 2.288-5.233 3.435-8.55 3.435-3.289 0-6.13-1.148-8.506-3.435-2.384-2.298-3.573-5.221-3.573-8.745 0-6.874 5.225-12.181 12.078-12.181 3.288 0 6.137 1.157 8.527 3.462 2.4 2.31 3.6 5.225 3.6 8.718 0 3.525-1.191 6.448-3.574 8.746h-.002Zm22.494-14.816c-.706 1.188-1.254 2.042-1.64 2.556-.423.56-.842 1.007-1.257 1.316 3.343 1.086 4.588 3.412 4.588 6.878v7.023h-.338a4.486 4.486 0 0 1-4.474-4.493v-2.053c0-2.244-1.002-3.767-3.368-3.767h-4.372V34.41h-.338a4.484 4.484 0 0 1-4.471-4.493V4.993A4.48 4.48 0 0 1 46.272.5h.339v18.908h1.422c1.561 0 2.589-.537 3.18-1.552l4.039-6.85 5.482-.005-3.265 5.636h.003Zm24.831 14.816c-2.377 2.288-5.233 3.435-8.55 3.435-3.289 0-6.128-1.148-8.505-3.435-2.385-2.298-3.574-5.221-3.574-8.745 0-6.874 5.225-12.181 12.078-12.181 3.29 0 6.137 1.157 8.529 3.462 2.399 2.31 3.597 5.225 3.597 8.718 0 3.525-1.19 6.448-3.573 8.746h-.002Zm-3.472-14.192c-1.325-1.393-3.01-2.092-5.079-2.092-4.427 0-7.076 3.241-7.076 7.538 0 4.239 2.712 7.54 7.076 7.54 4.366 0 7.077-3.301 7.077-7.54 0-2.25-.672-4.055-1.998-5.446Zm-47.324 0c-1.325-1.393-3.01-2.092-5.078-2.092-4.428 0-7.077 3.241-7.077 7.538 0 4.239 2.712 7.54 7.077 7.54 4.364 0 7.076-3.301 7.076-7.54 0-2.25-.672-4.055-1.998-5.446Z" clip-rule="evenodd"/>
  </g>
  <defs>
    <clipPath id="a">
      <path fill="#fff" d="M0 0h204v45H0z" transform="translate(0 .5)"/>
    </clipPath>
  </defs>
</svg>
